<?xml version="1.0" encoding="UTF-8"?>
<svg width="189px" height="81px" viewBox="0 0 189 81" version="1.1" xmlns="http://www.w3.org/2000/svg" xmlns:xlink="http://www.w3.org/1999/xlink">
    <!-- Generator: Sketch 50.2 (55047) - http://www.bohemiancoding.com/sketch -->
    <title>Group</title>
    <desc>Created with Sketch.</desc>
    <defs>
        <path d="M39.9731234,6.25994751 C21.3541207,6.25994751 6.26267717,21.3513911 6.26267717,39.9706037 C6.26267717,53.3860367 14.1194751,64.9352231 25.463727,70.3609449 L26.5188451,49.9729134 C26.5188451,49.9729134 24.5341732,49.3215748 24.0997375,49.1095013 C19.8901837,47.2552231 16.832126,41.7954856 16.832126,34.7095013 C16.832126,26.9772178 22.8287664,20.3170604 28.6263517,20.2620472 C28.6337008,20.2620472 28.6337008,20.2620472 28.6385302,20.2620472 C28.6410499,20.2620472 28.6458793,20.2620472 28.648189,20.2620472 C34.4470341,20.3168504 40.4438845,26.9770079 40.4438845,34.7095013 C40.4438845,41.7954856 37.3820472,47.2529134 33.1811024,49.1095013 C33.1481365,49.1239895 30.7426772,49.9974803 30.7426772,49.9974803 L31.9210499,72.6664567 C34.5068766,73.3028871 37.1953806,73.6764304 39.9777428,73.6764304 C43.7299738,73.6764304 47.3234646,73.0372703 50.6950131,71.9076115 L51.7392126,51.7051969 C48.9875066,51.1000525 46.6404199,49.3482415 45.1693438,47.1504462 C43.3469816,44.4205774 46.5721785,20.2597375 46.5721785,20.2597375 L48.6702362,20.2597375 L48.6702362,42.9322835 L50.7538058,42.9322835 L50.7538058,20.2622572 L53.0324409,20.2622572 L53.0324409,42.9373228 L55.1061417,42.9373228 L55.1061417,20.2622572 L57.4702362,20.2622572 L57.4702362,42.9373228 L59.5510761,42.9373228 L59.5510761,20.2622572 L61.1611549,20.2622572 C61.1611549,20.2622572 64.3863517,44.4230971 62.5616798,47.1529659 C61.1050919,49.3291339 58.7800525,51.0759055 56.0625722,51.6955381 C56.0138583,51.7127559 55.9697638,51.7295538 55.9697638,51.7295538 L56.8772703,69.1071916 C66.9188451,63.2690814 73.6862992,52.4226772 73.6862992,39.9708136 C73.6812598,21.351601 58.5898163,6.25994751 39.9731234,6.25994751 Z" id="path-1"></path>
        <linearGradient x1="89.1263148%" y1="8.22123591%" x2="12.8460037%" y2="90.451754%" id="linearGradient-3">
            <stop stop-color="#87D631" offset="0%"></stop>
            <stop stop-color="#BFF5E9" offset="100%"></stop>
        </linearGradient>
    </defs>
    <g id="Page-1" stroke="none" stroke-width="1" fill="none" fill-rule="evenodd">
        <g id="Desktop-HD" transform="translate(-240.000000, -38.000000)">
            <g id="Group" transform="translate(240.000000, 38.746438)">
                <g id="Group-2">
                    <mask id="mask-2" fill="white">
                        <use xlink:href="#path-1"></use>
                    </mask>
                    <g id="Shape" fill-rule="nonzero"></g>
                    <circle id="Oval" fill="#70B125" mask="url(#mask-2)" cx="58.7926509" cy="51.2335958" r="25.1968504"></circle>
                    <circle id="Oval-Copy" fill-opacity="0.731459466" fill="#7ED321" mask="url(#mask-2)" cx="64.671916" cy="33.6631872" r="36.7454068"></circle>
                    <circle id="Oval-Copy-2" fill-opacity="0.731459466" fill="#7ED321" mask="url(#mask-2)" cx="47.2440945" cy="32.176378" r="36.7454068"></circle>
                    <circle id="Oval-Copy-3" fill-opacity="0.370386096" fill="#50E3C2" mask="url(#mask-2)" cx="27.9265092" cy="43.1960105" r="36.7454068"></circle>
                    <path d="M39.9731234,0 C17.9349081,0 0,17.9311286 0,39.9706037 C0,62.0052493 17.9349081,79.9414173 39.9731234,79.9414173 C62.0102887,79.9414173 79.9416273,62.0052493 79.9416273,39.9706037 C79.9414173,17.9311286 62.0102887,0 39.9731234,0 Z M39.9731234,76.96021 C19.5754331,76.96021 2.97994751,60.3659843 2.97994751,39.9706037 C2.97994751,19.5729134 19.5754331,2.97742782 39.9731234,2.97742782 C60.3685039,2.97742782 76.9652493,19.5729134 76.9652493,39.9706037 C76.9650394,60.3659843 60.368294,76.96021 39.9731234,76.96021 Z" id="Shape" fill="url(#linearGradient-3)" fill-rule="nonzero"></path>
                    <path d="M87.5323636,30.2924375 L90.2203636,30.2924375 L90.2203636,27.4364375 C90.2203636,25.0284255 90.9553562,23.2014438 92.4253636,21.9554375 C93.8953709,20.7094313 95.6523534,20.0864375 97.6963636,20.0864375 C98.7323688,20.0864375 99.810358,20.2684357 100.930364,20.6324375 C102.050369,20.9964394 102.94636,21.5004343 103.618364,22.1444375 C104.094366,22.5644396 104.122366,23.0824345 103.702364,23.6984375 L101.896364,26.2184375 C101.532362,26.7784403 100.958368,26.8064401 100.174364,26.3024375 C99.5303604,25.8544353 98.9143665,25.6304375 98.3263636,25.6304375 C97.7383606,25.6304375 97.2483655,25.8334355 96.8563636,26.2394375 C96.4643616,26.6454396 96.2683636,27.2404336 96.2683636,28.0244375 L96.2683636,30.2924375 L100.174364,30.2924375 C100.426365,30.2924375 100.643363,30.3834366 100.825364,30.5654375 C101.007364,30.7474385 101.098364,30.9644363 101.098364,31.2164375 L101.098364,34.4504375 C101.098364,34.6744387 101.007364,34.8844366 100.825364,35.0804375 C100.643363,35.2764385 100.426365,35.3744375 100.174364,35.3744375 L96.2683636,35.3744375 L96.2683636,49.8224375 C96.2683636,50.0744388 96.1843644,50.2914366 96.0163636,50.4734375 C95.8483627,50.6554385 95.6383648,50.7464375 95.3863636,50.7464375 L91.1443636,50.7464375 C90.8923623,50.7464375 90.6753645,50.6554385 90.4933636,50.4734375 C90.3113627,50.2914366 90.2203636,50.0744388 90.2203636,49.8224375 L90.2203636,35.3744375 L87.5323636,35.3744375 C87.2803623,35.3744375 87.0633645,35.2764385 86.8813636,35.0804375 C86.6993627,34.8844366 86.6083636,34.6744387 86.6083636,34.4504375 L86.6083636,31.2164375 C86.6083636,30.9644363 86.6993627,30.7474385 86.8813636,30.5654375 C87.0633645,30.3834366 87.2803623,30.2924375 87.5323636,30.2924375 Z M101.959364,48.2264375 C99.8033528,46.1544272 98.7253636,43.6064527 98.7253636,40.5824375 C98.7253636,37.5584224 99.8033528,34.9894481 101.959364,32.8754375 C104.115374,30.761427 106.733348,29.7044375 109.813364,29.7044375 C112.893379,29.7044375 115.518353,30.754427 117.688364,32.8544375 C119.858374,34.954448 120.943364,37.5304223 120.943364,40.5824375 C120.943364,43.6064527 119.865374,46.1544272 117.709364,48.2264375 C115.553353,50.2984479 112.921379,51.3344375 109.813364,51.3344375 C106.733348,51.3344375 104.115374,50.2984479 101.959364,48.2264375 Z M106.285364,36.8864375 C105.333359,37.8944426 104.857364,39.1124304 104.857364,40.5404375 C104.857364,41.9684447 105.333359,43.1864325 106.285364,44.1944375 C107.237368,45.2024426 108.413357,45.7064375 109.813364,45.7064375 C111.241371,45.7064375 112.431359,45.2024426 113.383364,44.1944375 C114.335368,43.1864325 114.811364,41.9684447 114.811364,40.5404375 C114.811364,39.1124304 114.335368,37.8874427 113.383364,36.8654375 C112.431359,35.8434324 111.241371,35.3324375 109.813364,35.3324375 C108.413357,35.3324375 107.237368,35.8504324 106.285364,36.8864375 Z M122.392364,48.2264375 C120.236353,46.1544272 119.158364,43.6064527 119.158364,40.5824375 C119.158364,37.5584224 120.236353,34.9894481 122.392364,32.8754375 C124.548374,30.761427 127.166348,29.7044375 130.246364,29.7044375 C133.326379,29.7044375 135.951353,30.754427 138.121364,32.8544375 C140.291374,34.954448 141.376364,37.5304223 141.376364,40.5824375 C141.376364,43.6064527 140.298374,46.1544272 138.142364,48.2264375 C135.986353,50.2984479 133.354379,51.3344375 130.246364,51.3344375 C127.166348,51.3344375 124.548374,50.2984479 122.392364,48.2264375 Z M126.718364,36.8864375 C125.766359,37.8944426 125.290364,39.1124304 125.290364,40.5404375 C125.290364,41.9684447 125.766359,43.1864325 126.718364,44.1944375 C127.670368,45.2024426 128.846357,45.7064375 130.246364,45.7064375 C131.674371,45.7064375 132.864359,45.2024426 133.816364,44.1944375 C134.768368,43.1864325 135.244364,41.9684447 135.244364,40.5404375 C135.244364,39.1124304 134.768368,37.8874427 133.816364,36.8654375 C132.864359,35.8434324 131.674371,35.3324375 130.246364,35.3324375 C128.846357,35.3324375 127.670368,35.8504324 126.718364,36.8864375 Z M147.193364,36.8864375 C146.241359,37.8944426 145.765364,39.1124304 145.765364,40.5404375 C145.765364,41.9684447 146.241359,43.1934324 147.193364,44.2154375 C148.145368,45.2374427 149.335356,45.7484375 150.763364,45.7484375 C152.191371,45.7484375 153.381359,45.2374427 154.333364,44.2154375 C155.285368,43.1934324 155.761364,41.9684447 155.761364,40.5404375 C155.761364,39.1124304 155.285368,37.8874427 154.333364,36.8654375 C153.381359,35.8434324 152.191371,35.3324375 150.763364,35.3324375 C149.335356,35.3324375 148.145368,35.8504324 147.193364,36.8864375 Z M142.657364,48.3104375 C140.641354,46.2944275 139.633364,43.6904535 139.633364,40.4984375 C139.633364,37.3064216 140.634354,34.7094476 142.636364,32.7074375 C144.638374,30.7054275 147.01135,29.7044375 149.755364,29.7044375 C151.09937,29.7044375 152.303358,29.956435 153.367364,30.4604375 C154.431369,30.9644401 155.215361,31.6084336 155.719364,32.3924375 L155.719364,22.2284375 C155.719364,21.9764363 155.810363,21.7664384 155.992364,21.5984375 C156.174364,21.4304367 156.391362,21.3464375 156.643364,21.3464375 L160.885364,21.3464375 C161.137365,21.3464375 161.347363,21.4304367 161.515364,21.5984375 C161.683364,21.7664384 161.767364,21.9764363 161.767364,22.2284375 L161.767364,49.8644375 C161.767364,50.1164388 161.683364,50.3264367 161.515364,50.4944375 C161.347363,50.6624384 161.137365,50.7464375 160.885364,50.7464375 L156.643364,50.7464375 C156.419362,50.7464375 156.216364,50.6624384 156.034364,50.4944375 C155.852363,50.3264367 155.761364,50.1164388 155.761364,49.8644375 L155.761364,48.5624375 C154.445357,50.4104468 152.471377,51.3344375 149.839364,51.3344375 C147.09535,51.3344375 144.701374,50.3264476 142.657364,48.3104375 Z M164.980364,28.1084375 C163.972359,28.1084375 163.111367,27.7444412 162.397364,27.0164375 C161.68336,26.2884339 161.326364,25.4344424 161.326364,24.4544375 C161.326364,23.4464325 161.68336,22.5784412 162.397364,21.8504375 C163.111367,21.1224339 163.972359,20.7584375 164.980364,20.7584375 C165.960368,20.7584375 166.80736,21.1224339 167.521364,21.8504375 C168.235367,22.5784412 168.592364,23.4464325 168.592364,24.4544375 C168.592364,25.4344424 168.235367,26.2884339 167.521364,27.0164375 C166.80736,27.7444412 165.960368,28.1084375 164.980364,28.1084375 Z M167.080364,50.7464375 L162.838364,50.7464375 C162.586362,50.7464375 162.369364,50.6554385 162.187364,50.4734375 C162.005363,50.2914366 161.914364,50.0744388 161.914364,49.8224375 L161.914364,31.2164375 C161.914364,30.9644363 162.005363,30.7474385 162.187364,30.5654375 C162.369364,30.3834366 162.586362,30.2924375 162.838364,30.2924375 L167.080364,30.2924375 C167.332365,30.2924375 167.542363,30.3834366 167.710364,30.5654375 C167.878364,30.7474385 167.962364,30.9644363 167.962364,31.2164375 L167.962364,49.8224375 C167.962364,50.0744388 167.878364,50.2914366 167.710364,50.4734375 C167.542363,50.6554385 167.332365,50.7464375 167.080364,50.7464375 Z M170.251364,32.8964375 C172.323374,30.7684269 174.913348,29.7044375 178.021364,29.7044375 C181.129379,29.7044375 183.656354,30.7194274 185.602364,32.7494375 C187.548373,34.7794477 188.521364,37.1664238 188.521364,39.9104375 L188.521364,41.0444375 C188.521364,41.6884408 188.171367,42.0104375 187.471364,42.0104375 L173.443364,42.0104375 C173.583364,43.2704438 174.108359,44.2854337 175.018364,45.0554375 C175.928368,45.8254414 176.999357,46.2104375 178.231364,46.2104375 C179.967372,46.2104375 181.423358,45.5524441 182.599364,44.2364375 C182.991366,43.8444356 183.355362,43.7744363 183.691364,44.0264375 L186.925364,46.1264375 C187.429366,46.4624392 187.485366,46.882435 187.093364,47.3864375 C185.077354,50.0184507 182.081383,51.3344375 178.105364,51.3344375 C174.913348,51.3344375 172.295374,50.3124478 170.251364,48.2684375 C168.207353,46.2244273 167.185364,43.6764528 167.185364,40.6244375 C167.185364,37.5724223 168.207353,34.996448 170.251364,32.8964375 Z M182.557364,38.2304375 C182.305362,37.0544317 181.759368,36.1514407 180.919364,35.5214375 C180.079359,34.8914344 179.127369,34.5764375 178.063364,34.5764375 C177.027358,34.5764375 176.089368,34.9054343 175.249364,35.5634375 C174.409359,36.2214408 173.849365,37.1104319 173.569364,38.2304375 L182.557364,38.2304375 Z" id="foodie" fill="#7CCF20"></path>
                    <path d="M91.2052996,61.1904375 C91.481301,60.6504348 91.9012968,60.2184392 92.4652996,59.8944375 C93.0293025,59.5704359 93.6652961,59.4084375 94.3732996,59.4084375 C95.5373055,59.4084375 96.5242956,59.8254334 97.3342996,60.6594375 C98.1443037,61.4934417 98.5492996,62.5464312 98.5492996,63.8184375 C98.5492996,65.0904439 98.1443037,66.1404334 97.3342996,66.9684375 C96.5242956,67.7964417 95.5313055,68.2104375 94.3552996,68.2104375 C93.6712962,68.2104375 93.0473025,68.0454392 92.4832996,67.7154375 C91.9192968,67.3854359 91.4933011,66.9564402 91.2052996,66.4284375 L91.2052996,67.6704375 C91.2052996,67.754438 91.1752999,67.8264372 91.1152996,67.8864375 C91.0552993,67.9464378 90.9833001,67.9764375 90.8992996,67.9764375 L90.2692996,67.9764375 C90.1852992,67.9764375 90.1132999,67.9464378 90.0532996,67.8864375 C89.9932993,67.8264372 89.9632996,67.754438 89.9632996,67.6704375 L89.9632996,55.6824375 C89.9632996,55.5984371 89.9932993,55.5264378 90.0532996,55.4664375 C90.1132999,55.4064372 90.1852992,55.3764375 90.2692996,55.3764375 L90.9172996,55.3764375 C91.0013001,55.3764375 91.0702994,55.4064372 91.1242996,55.4664375 C91.1782999,55.5264378 91.2052996,55.5984371 91.2052996,55.6824375 L91.2052996,61.1904375 Z M91.1872996,63.8184375 C91.1872996,64.7304421 91.4752968,65.4984344 92.0512996,66.1224375 C92.6273025,66.7464407 93.3592952,67.0584375 94.2472996,67.0584375 C95.123304,67.0584375 95.8492968,66.7464407 96.4252996,66.1224375 C97.0013025,65.4984344 97.2892996,64.7304421 97.2892996,63.8184375 C97.2892996,62.8944329 97.0013025,62.1174407 96.4252996,61.4874375 C95.8492968,60.8574344 95.123304,60.5424375 94.2472996,60.5424375 C93.3592952,60.5424375 92.6273025,60.8574344 92.0512996,61.4874375 C91.4752968,62.1174407 91.1872996,62.8944329 91.1872996,63.8184375 Z M101.0873,71.9364375 C100.247295,71.9364375 99.587302,71.6784401 99.1072996,71.1624375 C98.975299,71.0304369 98.9812989,70.8804384 99.1252996,70.7124375 L99.4132996,70.3884375 C99.5453003,70.2324368 99.7132986,70.2324368 99.9172996,70.3884375 C100.289302,70.7004391 100.679298,70.8564375 101.0873,70.8564375 C101.723303,70.8564375 102.197298,70.4424417 102.5093,69.6144375 L103.1213,67.9764375 L102.7793,67.9764375 C102.599299,67.9764375 102.4853,67.8984383 102.4373,67.7424375 L99.5932996,59.9664375 C99.5692995,59.8824371 99.5782994,59.8044379 99.6202996,59.7324375 C99.6622999,59.6604372 99.7312992,59.6244375 99.8272996,59.6244375 L100.6553,59.6244375 C100.8113,59.6244375 100.925299,59.7204366 100.9973,59.9124375 L103.4993,66.9504375 L105.9293,59.9124375 C106.0013,59.7204366 106.121299,59.6244375 106.2893,59.6244375 L107.0813,59.6244375 C107.1773,59.6244375 107.246299,59.6604372 107.2883,59.7324375 C107.3303,59.8044379 107.3333,59.8824371 107.2973,59.9664375 L103.6613,69.9924375 C103.205297,71.288444 102.347306,71.9364375 101.0873,71.9364375 Z M115.2713,61.4784375 C114.695297,62.1024407 114.4073,62.8764329 114.4073,63.8004375 C114.4073,64.7244422 114.695297,65.4984344 115.2713,66.1224375 C115.847303,66.7464407 116.579295,67.0584375 117.4673,67.0584375 C118.343304,67.0584375 119.066297,66.7464407 119.6363,66.1224375 C120.206302,65.4984344 120.4913,64.7244422 120.4913,63.8004375 C120.4913,62.8764329 120.206302,62.1024407 119.6363,61.4784375 C119.066297,60.8544344 118.343304,60.5424375 117.4673,60.5424375 C116.579295,60.5424375 115.847303,60.8544344 115.2713,61.4784375 Z M114.4253,61.2084375 C114.689301,60.6684348 115.106297,60.2334392 115.6763,59.9034375 C116.246302,59.5734359 116.885296,59.4084375 117.5933,59.4084375 C118.757305,59.4084375 119.744296,59.8224334 120.5543,60.6504375 C121.364304,61.4784417 121.7693,62.5284312 121.7693,63.8004375 C121.7693,65.084444 121.364304,66.1404334 120.5543,66.9684375 C119.744296,67.7964417 118.751306,68.2104375 117.5753,68.2104375 C116.891296,68.2104375 116.264302,68.0454392 115.6943,67.7154375 C115.124297,67.3854359 114.701301,66.9564402 114.4253,66.4284375 L114.4253,71.3784375 C114.4253,71.462438 114.3953,71.5344372 114.3353,71.5944375 C114.275299,71.6544378 114.2033,71.6844375 114.1193,71.6844375 L113.4893,71.6844375 C113.405299,71.6844375 113.3333,71.6544378 113.2733,71.5944375 C113.213299,71.5344372 113.1833,71.462438 113.1833,71.3784375 L113.1833,59.9304375 C113.1833,59.8464371 113.213299,59.7744378 113.2733,59.7144375 C113.3333,59.6544372 113.405299,59.6244375 113.4893,59.6244375 L114.1193,59.6244375 C114.2033,59.6244375 114.275299,59.6544372 114.3353,59.7144375 C114.3953,59.7744378 114.4253,59.8464371 114.4253,59.9304375 L114.4253,61.2084375 Z M124.9193,57.4464375 C124.727299,57.6504386 124.493301,57.7524375 124.2173,57.7524375 C123.941298,57.7524375 123.704301,57.6504386 123.5063,57.4464375 C123.308299,57.2424365 123.2093,57.0024389 123.2093,56.7264375 C123.2093,56.4504362 123.308299,56.2104386 123.5063,56.0064375 C123.704301,55.8024365 123.941298,55.7004375 124.2173,55.7004375 C124.493301,55.7004375 124.730299,55.8024365 124.9283,56.0064375 C125.126301,56.2104386 125.2253,56.4504362 125.2253,56.7264375 C125.2253,57.0024389 125.123301,57.2424365 124.9193,57.4464375 Z M124.5413,67.9764375 L123.8933,67.9764375 C123.809299,67.9764375 123.7373,67.9464378 123.6773,67.8864375 C123.617299,67.8264372 123.5873,67.754438 123.5873,67.6704375 L123.5873,59.9304375 C123.5873,59.8464371 123.617299,59.7744378 123.6773,59.7144375 C123.7373,59.6544372 123.809299,59.6244375 123.8933,59.6244375 L124.5413,59.6244375 C124.6253,59.6244375 124.694299,59.6544372 124.7483,59.7144375 C124.8023,59.7744378 124.8293,59.8464371 124.8293,59.9304375 L124.8293,67.6704375 C124.8293,67.754438 124.8023,67.8264372 124.7483,67.8864375 C124.694299,67.9464378 124.6253,67.9764375 124.5413,67.9764375 Z M134.6753,66.0684375 C134.351298,66.7284408 133.856303,67.2504356 133.1903,67.6344375 C132.524296,68.0184395 131.783304,68.2104375 130.9673,68.2104375 C129.755294,68.2104375 128.732304,67.7904417 127.8983,66.9504375 C127.064295,66.1104333 126.6473,65.0604438 126.6473,63.8004375 C126.6473,62.5404312 127.064295,61.4904417 127.8983,60.6504375 C128.732304,59.8104333 129.755294,59.3904375 130.9673,59.3904375 C131.783304,59.3904375 132.524296,59.5824356 133.1903,59.9664375 C133.856303,60.3504395 134.351298,60.8724342 134.6753,61.5324375 C134.7833,61.7364386 134.741301,61.8864371 134.5493,61.9824375 L134.0813,62.2164375 C133.889299,62.3244381 133.7333,62.2824385 133.6133,62.0904375 C133.013297,61.0584324 132.131305,60.5424375 130.9673,60.5424375 C130.091295,60.5424375 129.365303,60.8544344 128.7893,61.4784375 C128.213297,62.1024407 127.9253,62.8764329 127.9253,63.8004375 C127.9253,64.7244422 128.213297,65.4984344 128.7893,66.1224375 C129.365303,66.7464407 130.091295,67.0584375 130.9673,67.0584375 C132.131305,67.0584375 133.013297,66.5424427 133.6133,65.5104375 C133.7333,65.3184366 133.889299,65.276437 134.0813,65.3844375 L134.5493,65.6184375 C134.741301,65.714438 134.7833,65.8644365 134.6753,66.0684375 Z M137.7173,67.6704375 C137.7173,67.754438 137.6903,67.8264372 137.6363,67.8864375 C137.582299,67.9464378 137.5133,67.9764375 137.4293,67.9764375 L136.7813,67.9764375 C136.697299,67.9764375 136.6253,67.9464378 136.5653,67.8864375 C136.505299,67.8264372 136.4753,67.754438 136.4753,67.6704375 L136.4753,55.6824375 C136.4753,55.5984371 136.505299,55.5264378 136.5653,55.4664375 C136.6253,55.4064372 136.697299,55.3764375 136.7813,55.3764375 L137.4293,55.3764375 C137.5133,55.3764375 137.582299,55.4064372 137.6363,55.4664375 C137.6903,55.5264378 137.7173,55.5984371 137.7173,55.6824375 L137.7173,62.7744375 L138.8153,62.7744375 L141.5873,59.8044375 C141.6953,59.6844369 141.803299,59.6244375 141.9113,59.6244375 L142.9193,59.6244375 C143.0033,59.6244375 143.0573,59.6574372 143.0813,59.7234375 C143.1053,59.7894379 143.0873,59.8524372 143.0273,59.9124375 L139.7693,63.2964375 L143.5673,67.6704375 C143.6273,67.7304378 143.6423,67.7964372 143.6123,67.8684375 C143.582299,67.9404379 143.5253,67.9764375 143.4413,67.9764375 L142.5233,67.9764375 C142.319299,67.9764375 142.1573,67.8984383 142.0373,67.7424375 L138.6893,63.8364375 L137.7173,63.8364375 L137.7173,67.6704375 Z M145.9073,59.9304375 L145.9073,64.3764375 C145.9073,65.2404419 146.132297,65.9154351 146.5823,66.4014375 C147.032302,66.88744 147.677295,67.1304375 148.5173,67.1304375 C149.345304,67.1304375 150.005297,66.8754401 150.4973,66.3654375 C150.989302,65.855435 151.2353,65.1924416 151.2353,64.3764375 L151.2353,59.9304375 C151.2353,59.8464371 151.265299,59.7744378 151.3253,59.7144375 C151.3853,59.6544372 151.457299,59.6244375 151.5413,59.6244375 L152.1713,59.6244375 C152.2553,59.6244375 152.327299,59.6544372 152.3873,59.7144375 C152.4473,59.7744378 152.4773,59.8464371 152.4773,59.9304375 L152.4773,67.6704375 C152.4773,67.754438 152.4473,67.8264372 152.3873,67.8864375 C152.327299,67.9464378 152.2553,67.9764375 152.1713,67.9764375 L151.5413,67.9764375 C151.457299,67.9764375 151.3853,67.9494378 151.3253,67.8954375 C151.265299,67.8414373 151.2353,67.772438 151.2353,67.6884375 L151.2353,66.5184375 C150.983298,67.0344401 150.593302,67.445436 150.0653,67.7514375 C149.537297,68.0574391 148.919303,68.2104375 148.2113,68.2104375 C147.119294,68.2104375 146.255303,67.8804408 145.6193,67.2204375 C144.983296,66.5604342 144.6653,65.684443 144.6653,64.5924375 L144.6653,59.9304375 C144.6653,59.8464371 144.695299,59.7744378 144.7553,59.7144375 C144.8153,59.6544372 144.881299,59.6244375 144.9533,59.6244375 L145.6013,59.6244375 C145.6853,59.6244375 145.757299,59.6544372 145.8173,59.7144375 C145.8773,59.7744378 145.9073,59.8464371 145.9073,59.9304375 Z M156.9413,61.4784375 C156.365297,62.1024407 156.0773,62.8764329 156.0773,63.8004375 C156.0773,64.7244422 156.365297,65.4984344 156.9413,66.1224375 C157.517303,66.7464407 158.249295,67.0584375 159.1373,67.0584375 C160.013304,67.0584375 160.736297,66.7464407 161.3063,66.1224375 C161.876302,65.4984344 162.1613,64.7244422 162.1613,63.8004375 C162.1613,62.8764329 161.876302,62.1024407 161.3063,61.4784375 C160.736297,60.8544344 160.013304,60.5424375 159.1373,60.5424375 C158.249295,60.5424375 157.517303,60.8544344 156.9413,61.4784375 Z M156.0953,61.2084375 C156.359301,60.6684348 156.776297,60.2334392 157.3463,59.9034375 C157.916302,59.5734359 158.555296,59.4084375 159.2633,59.4084375 C160.427305,59.4084375 161.414296,59.8224334 162.2243,60.6504375 C163.034304,61.4784417 163.4393,62.5284312 163.4393,63.8004375 C163.4393,65.084444 163.034304,66.1404334 162.2243,66.9684375 C161.414296,67.7964417 160.421306,68.2104375 159.2453,68.2104375 C158.561296,68.2104375 157.934302,68.0454392 157.3643,67.7154375 C156.794297,67.3854359 156.371301,66.9564402 156.0953,66.4284375 L156.0953,71.3784375 C156.0953,71.462438 156.0653,71.5344372 156.0053,71.5944375 C155.945299,71.6544378 155.8733,71.6844375 155.7893,71.6844375 L155.1593,71.6844375 C155.075299,71.6844375 155.0033,71.6544378 154.9433,71.5944375 C154.883299,71.5344372 154.8533,71.462438 154.8533,71.3784375 L154.8533,59.9304375 C154.8533,59.8464371 154.883299,59.7744378 154.9433,59.7144375 C155.0033,59.6544372 155.075299,59.6244375 155.1593,59.6244375 L155.7893,59.6244375 C155.8733,59.6244375 155.945299,59.6544372 156.0053,59.7144375 C156.0653,59.7744378 156.0953,59.8464371 156.0953,59.9304375 L156.0953,61.2084375 Z" id="by-pickup" fill="#585858"></path>
                </g>
            </g>
        </g>
    </g>
</svg>